<mxfile host="65bd71144e">
    <diagram id="HuhUC8r1bE9fZLHFmISH" name="Page-1">
        <mxGraphModel dx="2640" dy="2268" grid="1" gridSize="10" guides="1" tooltips="1" connect="1" arrows="1" fold="1" page="1" pageScale="1" pageWidth="1169" pageHeight="827" math="0" shadow="0">
            <root>
                <mxCell id="0"/>
                <mxCell id="1" parent="0"/>
                <mxCell id="187" value="" style="group" parent="1" vertex="1" connectable="0">
                    <mxGeometry x="30" y="-30" width="2070" height="1360" as="geometry"/>
                </mxCell>
                <mxCell id="30" value=" Registration page " style="swimlane;fontStyle=0;startSize=23;" parent="187" vertex="1">
                    <mxGeometry x="1180" width="836.96" height="620" as="geometry"/>
                </mxCell>
                <mxCell id="178" value="" style="group" parent="30" vertex="1" connectable="0">
                    <mxGeometry x="66" y="40" width="910.9638554216867" height="550" as="geometry"/>
                </mxCell>
                <mxCell id="50" value="" style="rounded=1;whiteSpace=wrap;html=1;fontSize=15;fillColor=#f5f5f5;fontColor=#333333;strokeColor=#666666;" parent="178" vertex="1">
                    <mxGeometry width="630" height="550" as="geometry"/>
                </mxCell>
                <mxCell id="176" value="" style="group" parent="178" vertex="1" connectable="0">
                    <mxGeometry x="20.96385542168675" y="22.5" width="890" height="480" as="geometry"/>
                </mxCell>
                <mxCell id="51" value="Email" style="fillColor=none;strokeColor=none;align=left;fontSize=14;fontColor=#212529;" parent="176" vertex="1">
                    <mxGeometry y="30" width="41.9277108433735" height="22.5" as="geometry"/>
                </mxCell>
                <mxCell id="52" value="" style="html=1;shadow=0;dashed=0;shape=mxgraph.bootstrap.rrect;rSize=5;fillColor=none;strokeColor=#999999;align=left;spacing=15;fontSize=14;fontColor=#6C767D;" parent="176" vertex="1">
                    <mxGeometry x="104.81927710843374" y="30" width="419.27710843373495" height="22.5" as="geometry"/>
                </mxCell>
                <mxCell id="53" value="Password" style="fillColor=none;strokeColor=none;align=left;fontSize=14;fontColor=#212529;" parent="176" vertex="1">
                    <mxGeometry y="60" width="48.915662650602414" height="22.5" as="geometry"/>
                </mxCell>
                <mxCell id="54" value="" style="html=1;shadow=0;dashed=0;shape=mxgraph.bootstrap.rrect;rSize=5;fillColor=none;strokeColor=#999999;align=left;spacing=15;fontSize=14;fontColor=#6C767D;" parent="176" vertex="1">
                    <mxGeometry x="104.81927710843374" y="60" width="419.27710843373495" height="22.5" as="geometry"/>
                </mxCell>
                <mxCell id="62" value="Name:" style="fillColor=none;strokeColor=none;align=left;fontSize=14;fontColor=#212529;" parent="176" vertex="1">
                    <mxGeometry width="41.9277108433735" height="22.5" as="geometry"/>
                </mxCell>
                <mxCell id="63" value="" style="html=1;shadow=0;dashed=0;shape=mxgraph.bootstrap.rrect;rSize=5;fillColor=none;strokeColor=#999999;align=left;spacing=15;fontSize=14;fontColor=#6C767D;" parent="176" vertex="1">
                    <mxGeometry x="104.81927710843374" width="419.27710843373495" height="22.5" as="geometry"/>
                </mxCell>
                <mxCell id="65" value="" style="html=1;shadow=0;dashed=0;shape=mxgraph.bootstrap.rrect;rSize=5;fillColor=none;strokeColor=#999999;align=left;spacing=15;fontSize=14;fontColor=#6C767D;" parent="176" vertex="1">
                    <mxGeometry x="104.81927710843374" y="93" width="419.27710843373495" height="22.5" as="geometry"/>
                </mxCell>
                <mxCell id="66" value="ID Number" style="fillColor=none;strokeColor=none;align=left;fontSize=14;fontColor=#212529;" parent="176" vertex="1">
                    <mxGeometry y="93" width="55.903614457831324" height="22.5" as="geometry"/>
                </mxCell>
                <mxCell id="67" value="Mobile Number" style="fillColor=none;strokeColor=none;align=left;fontSize=14;fontColor=#212529;" parent="176" vertex="1">
                    <mxGeometry y="127.5" width="55.903614457831324" height="22.5" as="geometry"/>
                </mxCell>
                <mxCell id="68" value="" style="html=1;shadow=0;dashed=0;shape=mxgraph.bootstrap.rrect;rSize=5;fillColor=none;strokeColor=#999999;align=left;spacing=15;fontSize=14;fontColor=#6C767D;" parent="176" vertex="1">
                    <mxGeometry x="104.81927710843374" y="127.5" width="419.27710843373495" height="22.5" as="geometry"/>
                </mxCell>
                <mxCell id="69" value="" style="html=1;shadow=0;dashed=0;shape=mxgraph.bootstrap.rrect;rSize=5;fillColor=none;strokeColor=#999999;align=left;spacing=15;fontSize=14;fontColor=#6C767D;" parent="176" vertex="1">
                    <mxGeometry x="104.81927710843374" y="157.5" width="419.27710843373495" height="22.5" as="geometry"/>
                </mxCell>
                <mxCell id="70" value="" style="html=1;shadow=0;dashed=0;shape=mxgraph.bootstrap.rrect;rSize=5;fillColor=none;strokeColor=#999999;align=left;spacing=15;fontSize=14;fontColor=#6C767D;" parent="176" vertex="1">
                    <mxGeometry x="104.81927710843374" y="187.5" width="419.27710843373495" height="22.5" as="geometry"/>
                </mxCell>
                <mxCell id="71" value="" style="html=1;shadow=0;dashed=0;shape=mxgraph.bootstrap.rrect;rSize=5;fillColor=none;strokeColor=#999999;align=left;spacing=15;fontSize=14;fontColor=#6C767D;" parent="176" vertex="1">
                    <mxGeometry x="104.81927710843374" y="217.5" width="419.27710843373495" height="22.5" as="geometry"/>
                </mxCell>
                <mxCell id="72" value="City" style="fillColor=none;strokeColor=none;align=left;fontSize=14;fontColor=#212529;" parent="176" vertex="1">
                    <mxGeometry y="157.5" width="55.903614457831324" height="22.5" as="geometry"/>
                </mxCell>
                <mxCell id="73" value="Area" style="fillColor=none;strokeColor=none;align=left;fontSize=14;fontColor=#212529;" parent="176" vertex="1">
                    <mxGeometry y="187.5" width="55.903614457831324" height="22.5" as="geometry"/>
                </mxCell>
                <mxCell id="74" value="Address" style="fillColor=none;strokeColor=none;align=left;fontSize=14;fontColor=#212529;" parent="176" vertex="1">
                    <mxGeometry y="217.5" width="55.903614457831324" height="22.5" as="geometry"/>
                </mxCell>
                <mxCell id="75" value="Health ID" style="fillColor=none;strokeColor=none;align=left;fontSize=14;fontColor=#212529;" parent="176" vertex="1">
                    <mxGeometry y="247.5" width="55.903614457831324" height="22.5" as="geometry"/>
                </mxCell>
                <mxCell id="76" value="" style="html=1;shadow=0;dashed=0;shape=mxgraph.bootstrap.rrect;rSize=5;fillColor=none;strokeColor=#999999;align=left;spacing=15;fontSize=14;fontColor=#6C767D;" parent="176" vertex="1">
                    <mxGeometry x="104.81927710843374" y="247.5" width="419.27710843373495" height="22.5" as="geometry"/>
                </mxCell>
                <mxCell id="77" value="" style="group" parent="176" vertex="1" connectable="0">
                    <mxGeometry x="6.9879518072289155" y="345" width="301.1807228915663" height="97.5" as="geometry"/>
                </mxCell>
                <mxCell id="55" value="Gender" style="fillColor=none;strokeColor=none;align=left;fontSize=14;fontColor=#212529;" parent="77" vertex="1">
                    <mxGeometry width="34.93975903614458" height="22.5" as="geometry"/>
                </mxCell>
                <mxCell id="56" value="Male" style="html=1;shadow=0;dashed=0;shape=mxgraph.bootstrap.radioButton2;labelPosition=right;verticalLabelPosition=middle;align=left;verticalAlign=middle;gradientColor=#DEDEDE;fillColor=#EDEDED;strokeColor=#666666;checked=1;spacing=5;fontColor=#212529;checkedFill=#0085FC;checkedStroke=#ffffff;sketch=0;fontSize=15;" parent="77" vertex="1">
                    <mxGeometry x="111.80722891566265" y="7.5" width="6.9879518072289155" height="7.5" as="geometry"/>
                </mxCell>
                <mxCell id="57" value="Female" style="html=1;shadow=0;dashed=0;shape=mxgraph.bootstrap.radioButton2;labelPosition=right;verticalLabelPosition=middle;align=left;verticalAlign=middle;gradientColor=#DEDEDE;fillColor=#EDEDED;strokeColor=#666666;checked=0;spacing=5;fontColor=#212529;checkedFill=#0085FC;checkedStroke=#ffffff;sketch=0;fontSize=15;" parent="77" vertex="1">
                    <mxGeometry x="111.80722891566265" y="22.5" width="6.9879518072289155" height="7.5" as="geometry"/>
                </mxCell>
                <mxCell id="59" value="Covid PCR Test:" style="fillColor=none;strokeColor=none;align=left;fontSize=14;fontColor=#212529;" parent="77" vertex="1">
                    <mxGeometry y="37.5" width="76.86746987951807" height="22.5" as="geometry"/>
                </mxCell>
                <mxCell id="60" value="check if you have&amp;nbsp;" style="html=1;shadow=0;dashed=0;shape=mxgraph.bootstrap.checkbox2;labelPosition=right;verticalLabelPosition=middle;align=left;verticalAlign=middle;gradientColor=#DEDEDE;fillColor=#EDEDED;strokeColor=#666666;checked=1;spacing=5;fontColor=#212529;checkedFill=#0085FC;checkedStroke=#ffffff;sketch=0;fontSize=15;" parent="77" vertex="1">
                    <mxGeometry x="111.80722891566265" y="45" width="6.9879518072289155" height="7.5" as="geometry"/>
                </mxCell>
                <mxCell id="78" value="" style="strokeWidth=1;shadow=0;dashed=0;align=center;html=1;shape=mxgraph.mockup.forms.rrect;rSize=0;strokeColor=#999999;fillColor=#ffffff;recursiveResize=0;fontSize=15;" parent="176" vertex="1">
                    <mxGeometry x="104.81927710843374" y="285" width="83.855421686747" height="37.5" as="geometry"/>
                </mxCell>
                <mxCell id="80" value="Aids" style="strokeWidth=1;shadow=0;dashed=0;align=center;html=1;shape=mxgraph.mockup.forms.rrect;rSize=0;fillColor=#eeeeee;strokeColor=#999999;gradientColor=#cccccc;align=left;spacingLeft=4;fontSize=17;fontColor=#666666;labelPosition=right;" parent="78" vertex="1">
                    <mxGeometry x="5.590361445783133" y="7.5" width="10.481927710843374" height="11.25" as="geometry"/>
                </mxCell>
                <mxCell id="90" style="edgeStyle=none;html=1;fontSize=15;" parent="78" source="81" target="78" edge="1">
                    <mxGeometry relative="1" as="geometry"/>
                </mxCell>
                <mxCell id="81" value="Virus C" style="strokeWidth=1;shadow=0;dashed=0;align=center;html=1;shape=mxgraph.mockup.forms.checkbox;rSize=0;resizable=0;fillColor=#aaaaaa;strokeColor=#444444;gradientColor=#666666;align=left;spacingLeft=4;fontSize=17;fontColor=#008cff;labelPosition=right;" parent="78" vertex="1">
                    <mxGeometry x="5.590361445783133" y="22.5" width="15" height="15" as="geometry"/>
                </mxCell>
                <mxCell id="91" value="Diseases History:" style="fillColor=none;strokeColor=none;align=left;fontSize=14;fontColor=#212529;" parent="176" vertex="1">
                    <mxGeometry y="285" width="76.86746987951807" height="22.5" as="geometry"/>
                </mxCell>
                <mxCell id="122" value="" style="strokeWidth=1;shadow=0;dashed=0;align=center;html=1;shape=mxgraph.mockup.forms.rrect;rSize=5;strokeColor=#999999;fillColor=#ffffff;fontSize=15;" parent="176" vertex="1">
                    <mxGeometry x="384.3373493975904" y="285" width="118.79518072289157" height="112.5" as="geometry"/>
                </mxCell>
                <mxCell id="123" value="October 2014" style="strokeWidth=1;shadow=0;dashed=0;align=center;html=1;shape=mxgraph.mockup.forms.anchor;fontColor=#999999;fontSize=15;" parent="122" vertex="1">
                    <mxGeometry x="22.27409638554217" y="5.142857142857142" width="74.24698795180723" height="12.857142857142858" as="geometry"/>
                </mxCell>
                <mxCell id="124" value="&lt;" style="strokeWidth=1;shadow=0;dashed=0;align=center;html=1;shape=mxgraph.mockup.forms.rrect;rSize=4;strokeColor=#999999;fontColor=#008cff;fontSize=19;fontStyle=1;" parent="122" vertex="1">
                    <mxGeometry x="5.9397590361445785" y="5.142857142857142" width="18.561746987951807" height="12.857142857142858" as="geometry"/>
                </mxCell>
                <mxCell id="125" value="&gt;" style="strokeWidth=1;shadow=0;dashed=0;align=center;html=1;shape=mxgraph.mockup.forms.rrect;rSize=4;strokeColor=#999999;fontColor=#008cff;fontSize=19;fontStyle=1;" parent="122" vertex="1">
                    <mxGeometry x="94.29367469879519" y="5.142857142857142" width="18.561746987951807" height="12.857142857142858" as="geometry"/>
                </mxCell>
                <mxCell id="126" value="Mo" style="strokeWidth=1;shadow=0;dashed=0;align=center;html=1;shape=mxgraph.mockup.forms.anchor;fontColor=#999999;fontSize=15;" parent="122" vertex="1">
                    <mxGeometry x="7.424698795180723" y="17.999999999999996" width="14.849397590361447" height="12.857142857142858" as="geometry"/>
                </mxCell>
                <mxCell id="127" value="Tu" style="strokeWidth=1;shadow=0;dashed=0;align=center;html=1;shape=mxgraph.mockup.forms.anchor;fontColor=#999999;fontSize=15;" parent="122" vertex="1">
                    <mxGeometry x="22.27409638554217" y="17.999999999999996" width="14.849397590361447" height="12.857142857142858" as="geometry"/>
                </mxCell>
                <mxCell id="128" value="We" style="strokeWidth=1;shadow=0;dashed=0;align=center;html=1;shape=mxgraph.mockup.forms.anchor;fontColor=#999999;fontSize=15;" parent="122" vertex="1">
                    <mxGeometry x="37.123493975903614" y="17.999999999999996" width="14.849397590361447" height="12.857142857142858" as="geometry"/>
                </mxCell>
                <mxCell id="129" value="Th" style="strokeWidth=1;shadow=0;dashed=0;align=center;html=1;shape=mxgraph.mockup.forms.anchor;fontColor=#999999;fontSize=15;" parent="122" vertex="1">
                    <mxGeometry x="51.97289156626506" y="17.999999999999996" width="14.849397590361447" height="12.857142857142858" as="geometry"/>
                </mxCell>
                <mxCell id="130" value="Fr" style="strokeWidth=1;shadow=0;dashed=0;align=center;html=1;shape=mxgraph.mockup.forms.anchor;fontColor=#999999;fontSize=15;" parent="122" vertex="1">
                    <mxGeometry x="66.82228915662651" y="17.999999999999996" width="14.849397590361447" height="12.857142857142858" as="geometry"/>
                </mxCell>
                <mxCell id="131" value="Sa" style="strokeWidth=1;shadow=0;dashed=0;align=center;html=1;shape=mxgraph.mockup.forms.anchor;fontColor=#999999;fontSize=15;" parent="122" vertex="1">
                    <mxGeometry x="81.67168674698796" y="17.999999999999996" width="14.849397590361447" height="12.857142857142858" as="geometry"/>
                </mxCell>
                <mxCell id="132" value="Su" style="strokeWidth=1;shadow=0;dashed=0;align=center;html=1;shape=mxgraph.mockup.forms.anchor;fontColor=#999999;fontSize=15;" parent="122" vertex="1">
                    <mxGeometry x="96.52108433734941" y="17.999999999999996" width="14.849397590361447" height="12.857142857142858" as="geometry"/>
                </mxCell>
                <mxCell id="133" value="1" style="strokeWidth=1;shadow=0;dashed=0;align=center;html=1;shape=mxgraph.mockup.forms.rrect;rSize=0;strokeColor=#999999;fontColor=#999999;fontSize=15;" parent="122" vertex="1">
                    <mxGeometry x="7.424698795180723" y="30.857142857142865" width="14.849397590361447" height="12.857142857142858" as="geometry"/>
                </mxCell>
                <mxCell id="134" value="2" style="strokeWidth=1;shadow=0;dashed=0;align=center;html=1;shape=mxgraph.mockup.forms.rrect;rSize=0;strokeColor=#999999;fontColor=#999999;fontSize=15;" parent="122" vertex="1">
                    <mxGeometry x="22.27409638554217" y="30.857142857142865" width="14.849397590361447" height="12.857142857142858" as="geometry"/>
                </mxCell>
                <mxCell id="135" value="3" style="strokeWidth=1;shadow=0;dashed=0;align=center;html=1;shape=mxgraph.mockup.forms.rrect;rSize=0;strokeColor=#999999;fontColor=#999999;fontSize=15;" parent="122" vertex="1">
                    <mxGeometry x="37.123493975903614" y="30.857142857142865" width="14.849397590361447" height="12.857142857142858" as="geometry"/>
                </mxCell>
                <mxCell id="136" value="4" style="strokeWidth=1;shadow=0;dashed=0;align=center;html=1;shape=mxgraph.mockup.forms.rrect;rSize=0;strokeColor=#999999;fontColor=#999999;fontSize=15;" parent="122" vertex="1">
                    <mxGeometry x="51.97289156626506" y="30.857142857142865" width="14.849397590361447" height="12.857142857142858" as="geometry"/>
                </mxCell>
                <mxCell id="137" value="5" style="strokeWidth=1;shadow=0;dashed=0;align=center;html=1;shape=mxgraph.mockup.forms.rrect;rSize=0;strokeColor=#999999;fontColor=#999999;fontSize=15;" parent="122" vertex="1">
                    <mxGeometry x="66.82228915662651" y="30.857142857142865" width="14.849397590361447" height="12.857142857142858" as="geometry"/>
                </mxCell>
                <mxCell id="138" value="6" style="strokeWidth=1;shadow=0;dashed=0;align=center;html=1;shape=mxgraph.mockup.forms.rrect;rSize=0;strokeColor=#999999;fontColor=#999999;fontSize=15;" parent="122" vertex="1">
                    <mxGeometry x="81.67168674698796" y="30.857142857142865" width="14.849397590361447" height="12.857142857142858" as="geometry"/>
                </mxCell>
                <mxCell id="139" value="7" style="strokeWidth=1;shadow=0;dashed=0;align=center;html=1;shape=mxgraph.mockup.forms.rrect;rSize=0;strokeColor=#999999;fontColor=#999999;fontSize=15;" parent="122" vertex="1">
                    <mxGeometry x="96.52108433734941" y="30.857142857142865" width="14.849397590361447" height="12.857142857142858" as="geometry"/>
                </mxCell>
                <mxCell id="140" value="8" style="strokeWidth=1;shadow=0;dashed=0;align=center;html=1;shape=mxgraph.mockup.forms.rrect;rSize=0;strokeColor=#999999;fontColor=#999999;fontSize=15;" parent="122" vertex="1">
                    <mxGeometry x="7.424698795180723" y="43.71428571428572" width="14.849397590361447" height="12.857142857142858" as="geometry"/>
                </mxCell>
                <mxCell id="141" value="9" style="strokeWidth=1;shadow=0;dashed=0;align=center;html=1;shape=mxgraph.mockup.forms.rrect;rSize=0;strokeColor=#999999;fontColor=#999999;fontSize=15;" parent="122" vertex="1">
                    <mxGeometry x="22.27409638554217" y="43.71428571428572" width="14.849397590361447" height="12.857142857142858" as="geometry"/>
                </mxCell>
                <mxCell id="142" value="10" style="strokeWidth=1;shadow=0;dashed=0;align=center;html=1;shape=mxgraph.mockup.forms.rrect;rSize=0;strokeColor=#999999;fontColor=#999999;fontSize=15;" parent="122" vertex="1">
                    <mxGeometry x="37.123493975903614" y="43.71428571428572" width="14.849397590361447" height="12.857142857142858" as="geometry"/>
                </mxCell>
                <mxCell id="143" value="11" style="strokeWidth=1;shadow=0;dashed=0;align=center;html=1;shape=mxgraph.mockup.forms.rrect;rSize=0;strokeColor=#999999;fontColor=#999999;fontSize=15;" parent="122" vertex="1">
                    <mxGeometry x="51.97289156626506" y="43.71428571428572" width="14.849397590361447" height="12.857142857142858" as="geometry"/>
                </mxCell>
                <mxCell id="144" value="12" style="strokeWidth=1;shadow=0;dashed=0;align=center;html=1;shape=mxgraph.mockup.forms.rrect;rSize=0;strokeColor=#999999;fontColor=#999999;fontSize=15;" parent="122" vertex="1">
                    <mxGeometry x="66.82228915662651" y="43.71428571428572" width="14.849397590361447" height="12.857142857142858" as="geometry"/>
                </mxCell>
                <mxCell id="145" value="13" style="strokeWidth=1;shadow=0;dashed=0;align=center;html=1;shape=mxgraph.mockup.forms.rrect;rSize=0;strokeColor=#999999;fontColor=#999999;fontSize=15;" parent="122" vertex="1">
                    <mxGeometry x="81.67168674698796" y="43.71428571428572" width="14.849397590361447" height="12.857142857142858" as="geometry"/>
                </mxCell>
                <mxCell id="146" value="14" style="strokeWidth=1;shadow=0;dashed=0;align=center;html=1;shape=mxgraph.mockup.forms.rrect;rSize=0;strokeColor=#999999;fontColor=#999999;fontSize=15;" parent="122" vertex="1">
                    <mxGeometry x="96.52108433734941" y="43.71428571428572" width="14.849397590361447" height="12.857142857142858" as="geometry"/>
                </mxCell>
                <mxCell id="147" value="15" style="strokeWidth=1;shadow=0;dashed=0;align=center;html=1;shape=mxgraph.mockup.forms.rrect;rSize=0;strokeColor=#999999;fontColor=#999999;fontSize=15;" parent="122" vertex="1">
                    <mxGeometry x="7.424698795180723" y="56.57142857142857" width="14.849397590361447" height="12.857142857142858" as="geometry"/>
                </mxCell>
                <mxCell id="148" value="16" style="strokeWidth=1;shadow=0;dashed=0;align=center;html=1;shape=mxgraph.mockup.forms.rrect;rSize=0;strokeColor=#999999;fontColor=#999999;fontSize=15;" parent="122" vertex="1">
                    <mxGeometry x="22.27409638554217" y="56.57142857142857" width="14.849397590361447" height="12.857142857142858" as="geometry"/>
                </mxCell>
                <mxCell id="149" value="17" style="strokeWidth=1;shadow=0;dashed=0;align=center;html=1;shape=mxgraph.mockup.forms.rrect;rSize=0;strokeColor=#999999;fontColor=#999999;fontSize=15;" parent="122" vertex="1">
                    <mxGeometry x="37.123493975903614" y="56.57142857142857" width="14.849397590361447" height="12.857142857142858" as="geometry"/>
                </mxCell>
                <mxCell id="150" value="18" style="strokeWidth=1;shadow=0;dashed=0;align=center;html=1;shape=mxgraph.mockup.forms.rrect;rSize=0;strokeColor=#999999;fontColor=#999999;fontSize=15;" parent="122" vertex="1">
                    <mxGeometry x="51.97289156626506" y="56.57142857142857" width="14.849397590361447" height="12.857142857142858" as="geometry"/>
                </mxCell>
                <mxCell id="151" value="19" style="strokeWidth=1;shadow=0;dashed=0;align=center;html=1;shape=mxgraph.mockup.forms.rrect;rSize=0;strokeColor=#999999;fontColor=#999999;fontSize=15;" parent="122" vertex="1">
                    <mxGeometry x="66.82228915662651" y="56.57142857142857" width="14.849397590361447" height="12.857142857142858" as="geometry"/>
                </mxCell>
                <mxCell id="152" value="20" style="strokeWidth=1;shadow=0;dashed=0;align=center;html=1;shape=mxgraph.mockup.forms.rrect;rSize=0;strokeColor=#999999;fontColor=#999999;fontSize=15;" parent="122" vertex="1">
                    <mxGeometry x="81.67168674698796" y="56.57142857142857" width="14.849397590361447" height="12.857142857142858" as="geometry"/>
                </mxCell>
                <mxCell id="153" value="21" style="strokeWidth=1;shadow=0;dashed=0;align=center;html=1;shape=mxgraph.mockup.forms.rrect;rSize=0;strokeColor=#999999;fontColor=#999999;fontSize=15;" parent="122" vertex="1">
                    <mxGeometry x="96.52108433734941" y="56.57142857142857" width="14.849397590361447" height="12.857142857142858" as="geometry"/>
                </mxCell>
                <mxCell id="154" value="22" style="strokeWidth=1;shadow=0;dashed=0;align=center;html=1;shape=mxgraph.mockup.forms.rrect;rSize=0;strokeColor=#999999;fontColor=#999999;fontSize=15;" parent="122" vertex="1">
                    <mxGeometry x="7.424698795180723" y="69.42857142857142" width="14.849397590361447" height="12.857142857142858" as="geometry"/>
                </mxCell>
                <mxCell id="155" value="23" style="strokeWidth=1;shadow=0;dashed=0;align=center;html=1;shape=mxgraph.mockup.forms.rrect;rSize=0;strokeColor=#999999;fontColor=#999999;fontSize=15;" parent="122" vertex="1">
                    <mxGeometry x="22.27409638554217" y="69.42857142857142" width="14.849397590361447" height="12.857142857142858" as="geometry"/>
                </mxCell>
                <mxCell id="156" value="25" style="strokeWidth=1;shadow=0;dashed=0;align=center;html=1;shape=mxgraph.mockup.forms.rrect;rSize=0;strokeColor=#999999;fontColor=#999999;fontSize=15;" parent="122" vertex="1">
                    <mxGeometry x="51.97289156626506" y="69.42857142857142" width="14.849397590361447" height="12.857142857142858" as="geometry"/>
                </mxCell>
                <mxCell id="157" value="26" style="strokeWidth=1;shadow=0;dashed=0;align=center;html=1;shape=mxgraph.mockup.forms.rrect;rSize=0;strokeColor=#999999;fontColor=#999999;fontSize=15;" parent="122" vertex="1">
                    <mxGeometry x="66.82228915662651" y="69.42857142857142" width="14.849397590361447" height="12.857142857142858" as="geometry"/>
                </mxCell>
                <mxCell id="158" value="27" style="strokeWidth=1;shadow=0;dashed=0;align=center;html=1;shape=mxgraph.mockup.forms.rrect;rSize=0;strokeColor=#999999;fontColor=#999999;fontSize=15;" parent="122" vertex="1">
                    <mxGeometry x="81.67168674698796" y="69.42857142857142" width="14.849397590361447" height="12.857142857142858" as="geometry"/>
                </mxCell>
                <mxCell id="159" value="28" style="strokeWidth=1;shadow=0;dashed=0;align=center;html=1;shape=mxgraph.mockup.forms.rrect;rSize=0;strokeColor=#999999;fontColor=#999999;fontSize=15;" parent="122" vertex="1">
                    <mxGeometry x="96.52108433734941" y="69.42857142857142" width="14.849397590361447" height="12.857142857142858" as="geometry"/>
                </mxCell>
                <mxCell id="160" value="29" style="strokeWidth=1;shadow=0;dashed=0;align=center;html=1;shape=mxgraph.mockup.forms.rrect;rSize=0;strokeColor=#999999;fontColor=#999999;fontSize=15;" parent="122" vertex="1">
                    <mxGeometry x="7.424698795180723" y="82.28571428571428" width="14.849397590361447" height="12.857142857142858" as="geometry"/>
                </mxCell>
                <mxCell id="161" value="30" style="strokeWidth=1;shadow=0;dashed=0;align=center;html=1;shape=mxgraph.mockup.forms.rrect;rSize=0;strokeColor=#999999;fontColor=#999999;fontSize=15;" parent="122" vertex="1">
                    <mxGeometry x="22.27409638554217" y="82.28571428571428" width="14.849397590361447" height="12.857142857142858" as="geometry"/>
                </mxCell>
                <mxCell id="162" value="31" style="strokeWidth=1;shadow=0;dashed=0;align=center;html=1;shape=mxgraph.mockup.forms.rrect;rSize=0;strokeColor=#999999;fontColor=#999999;fontSize=15;" parent="122" vertex="1">
                    <mxGeometry x="37.123493975903614" y="82.28571428571428" width="14.849397590361447" height="12.857142857142858" as="geometry"/>
                </mxCell>
                <mxCell id="163" value="1" style="strokeWidth=1;shadow=0;dashed=0;align=center;html=1;shape=mxgraph.mockup.forms.rrect;rSize=0;strokeColor=#999999;fontColor=#999999;fillColor=#ddeeff;fontSize=15;" parent="122" vertex="1">
                    <mxGeometry x="51.97289156626506" y="82.28571428571428" width="14.849397590361447" height="12.857142857142858" as="geometry"/>
                </mxCell>
                <mxCell id="164" value="2" style="strokeWidth=1;shadow=0;dashed=0;align=center;html=1;shape=mxgraph.mockup.forms.rrect;rSize=0;strokeColor=#999999;fontColor=#999999;fillColor=#ddeeff;fontSize=15;" parent="122" vertex="1">
                    <mxGeometry x="66.82228915662651" y="82.28571428571428" width="14.849397590361447" height="12.857142857142858" as="geometry"/>
                </mxCell>
                <mxCell id="165" value="3" style="strokeWidth=1;shadow=0;dashed=0;align=center;html=1;shape=mxgraph.mockup.forms.rrect;rSize=0;strokeColor=#999999;fontColor=#999999;fillColor=#ddeeff;fontSize=15;" parent="122" vertex="1">
                    <mxGeometry x="81.67168674698796" y="82.28571428571428" width="14.849397590361447" height="12.857142857142858" as="geometry"/>
                </mxCell>
                <mxCell id="166" value="4" style="strokeWidth=1;shadow=0;dashed=0;align=center;html=1;shape=mxgraph.mockup.forms.rrect;rSize=0;strokeColor=#999999;fontColor=#999999;fillColor=#ddeeff;fontSize=15;" parent="122" vertex="1">
                    <mxGeometry x="96.52108433734941" y="82.28571428571428" width="14.849397590361447" height="12.857142857142858" as="geometry"/>
                </mxCell>
                <mxCell id="167" value="5" style="strokeWidth=1;shadow=0;dashed=0;align=center;html=1;shape=mxgraph.mockup.forms.rrect;rSize=0;strokeColor=#999999;fontColor=#999999;fillColor=#ddeeff;fontSize=15;" parent="122" vertex="1">
                    <mxGeometry x="7.424698795180723" y="95.14285714285714" width="14.849397590361447" height="12.857142857142858" as="geometry"/>
                </mxCell>
                <mxCell id="168" value="6" style="strokeWidth=1;shadow=0;dashed=0;align=center;html=1;shape=mxgraph.mockup.forms.rrect;rSize=0;strokeColor=#999999;fontColor=#999999;fillColor=#ddeeff;fontSize=15;" parent="122" vertex="1">
                    <mxGeometry x="22.27409638554217" y="95.14285714285714" width="14.849397590361447" height="12.857142857142858" as="geometry"/>
                </mxCell>
                <mxCell id="169" value="7" style="strokeWidth=1;shadow=0;dashed=0;align=center;html=1;shape=mxgraph.mockup.forms.rrect;rSize=0;strokeColor=#999999;fontColor=#999999;fillColor=#ddeeff;fontSize=15;" parent="122" vertex="1">
                    <mxGeometry x="37.123493975903614" y="95.14285714285714" width="14.849397590361447" height="12.857142857142858" as="geometry"/>
                </mxCell>
                <mxCell id="170" value="8" style="strokeWidth=1;shadow=0;dashed=0;align=center;html=1;shape=mxgraph.mockup.forms.rrect;rSize=0;strokeColor=#999999;fontColor=#999999;fillColor=#ddeeff;fontSize=15;" parent="122" vertex="1">
                    <mxGeometry x="51.97289156626506" y="95.14285714285714" width="14.849397590361447" height="12.857142857142858" as="geometry"/>
                </mxCell>
                <mxCell id="171" value="9" style="strokeWidth=1;shadow=0;dashed=0;align=center;html=1;shape=mxgraph.mockup.forms.rrect;rSize=0;strokeColor=#999999;fontColor=#999999;fillColor=#ddeeff;fontSize=15;" parent="122" vertex="1">
                    <mxGeometry x="66.82228915662651" y="95.14285714285714" width="14.849397590361447" height="12.857142857142858" as="geometry"/>
                </mxCell>
                <mxCell id="172" value="10" style="strokeWidth=1;shadow=0;dashed=0;align=center;html=1;shape=mxgraph.mockup.forms.rrect;rSize=0;strokeColor=#999999;fontColor=#999999;fillColor=#ddeeff;fontSize=15;" parent="122" vertex="1">
                    <mxGeometry x="81.67168674698796" y="95.14285714285714" width="14.849397590361447" height="12.857142857142858" as="geometry"/>
                </mxCell>
                <mxCell id="173" value="11" style="strokeWidth=1;shadow=0;dashed=0;align=center;html=1;shape=mxgraph.mockup.forms.rrect;rSize=0;strokeColor=#999999;fontColor=#999999;fillColor=#ddeeff;fontSize=15;" parent="122" vertex="1">
                    <mxGeometry x="96.52108433734941" y="95.14285714285714" width="14.849397590361447" height="12.857142857142858" as="geometry"/>
                </mxCell>
                <mxCell id="174" value="24" style="strokeWidth=1;shadow=0;dashed=0;align=center;html=1;shape=mxgraph.mockup.forms.rrect;rSize=0;strokeColor=#ff0000;fontColor=#ffffff;strokeWidth=2;fillColor=#008cff;fontSize=15;" parent="122" vertex="1">
                    <mxGeometry x="37.123493975903614" y="69.42857142857142" width="14.849397590361447" height="12.857142857142858" as="geometry"/>
                </mxCell>
                <mxCell id="175" value="Date of Birth" style="fillColor=none;strokeColor=none;align=left;fontSize=14;fontColor=#212529;" parent="176" vertex="1">
                    <mxGeometry x="286.50602409638554" y="292.5" width="76.86746987951807" height="22.5" as="geometry"/>
                </mxCell>
                <mxCell id="61" value="Sign up" style="html=1;shadow=0;dashed=0;shape=mxgraph.bootstrap.rrect;rSize=5;fillColor=#0085FC;strokeColor=none;align=center;fontSize=14;fontColor=#FFFFFF;sketch=0;" parent="176" vertex="1">
                    <mxGeometry x="277.7710843373494" y="435" width="73.37349397590361" height="45" as="geometry"/>
                </mxCell>
                <mxCell id="64" style="edgeStyle=none;html=1;fontSize=15;" parent="178" source="57" target="50" edge="1">
                    <mxGeometry relative="1" as="geometry"/>
                </mxCell>
                <mxCell id="2" value="Home Page" style="swimlane;" parent="187" vertex="1">
                    <mxGeometry y="30" width="320" height="210" as="geometry"/>
                </mxCell>
                <mxCell id="3" value="&lt;h1&gt;Heading&lt;/h1&gt;&lt;p&gt;Lorem ipsum dolor sit amet, consectetur adipisicing elit, sed do eiusmod tempor incididunt ut labore et dolore magna aliqua.&lt;/p&gt;" style="text;html=1;strokeColor=none;fillColor=none;spacing=5;spacingTop=-20;whiteSpace=wrap;overflow=hidden;rounded=0;" parent="2" vertex="1">
                    <mxGeometry x="20" y="50" width="190" height="120" as="geometry"/>
                </mxCell>
                <mxCell id="4" value="Blood Test" style="rounded=1;whiteSpace=wrap;html=1;" parent="2" vertex="1">
                    <mxGeometry x="136" y="170" width="70" height="20" as="geometry"/>
                </mxCell>
                <mxCell id="5" value="Home&amp;nbsp; &amp;nbsp; About Us&amp;nbsp; &amp;nbsp; Contact Us&amp;nbsp; &amp;nbsp;Registration&amp;nbsp; &amp;nbsp;Login" style="rounded=1;whiteSpace=wrap;html=1;" parent="2" vertex="1">
                    <mxGeometry y="25" width="320" height="20" as="geometry"/>
                </mxCell>
                <mxCell id="6" value="About us Page " style="swimlane;" parent="187" vertex="1">
                    <mxGeometry x="395" y="30" width="320" height="210" as="geometry"/>
                </mxCell>
                <mxCell id="7" value="&lt;h1&gt;&lt;span style=&quot;font-weight: normal&quot;&gt;Heading&lt;/span&gt;&lt;/h1&gt;&lt;p&gt;Lorem ipsum dolor sit amet, consectetur adipisicing elit, sed do eiusmod tempor incididunt ut labore et dolore magna aliqua.&lt;/p&gt;" style="text;html=1;strokeColor=none;fillColor=none;spacing=5;spacingTop=-20;whiteSpace=wrap;overflow=hidden;rounded=0;align=center;" parent="6" vertex="1">
                    <mxGeometry x="80" y="60" width="190" height="120" as="geometry"/>
                </mxCell>
                <mxCell id="9" value="Home&amp;nbsp; &amp;nbsp; About Us&amp;nbsp; &amp;nbsp; Contact Us&amp;nbsp; &amp;nbsp;Registration&amp;nbsp; &amp;nbsp;Login" style="rounded=1;whiteSpace=wrap;html=1;" parent="6" vertex="1">
                    <mxGeometry y="25" width="320" height="20" as="geometry"/>
                </mxCell>
                <mxCell id="188" value="" style="shape=singleArrow;whiteSpace=wrap;html=1;fontSize=27;" parent="6" vertex="1">
                    <mxGeometry x="-75" y="90" width="75" height="60" as="geometry"/>
                </mxCell>
                <mxCell id="10" value="Contact us Page " style="swimlane;fontStyle=0" parent="187" vertex="1">
                    <mxGeometry x="780" y="30" width="320" height="210" as="geometry"/>
                </mxCell>
                <mxCell id="11" value="&lt;h1&gt;&lt;ul&gt;&lt;li style=&quot;line-height: 0.4&quot;&gt;&lt;span style=&quot;font-size: 12px&quot;&gt;Campus name: &lt;/span&gt;&lt;font style=&quot;font-weight: normal ; font-size: 8px&quot;&gt;Bab sharqi&lt;/font&gt;&lt;br&gt;&lt;font style=&quot;font-size: 12px&quot;&gt;Adress:&lt;/font&gt;&lt;font style=&quot;font-weight: normal ; font-size: 12px&quot;&gt; &lt;/font&gt;&lt;span style=&quot;font-weight: normal ; font-size: 8px&quot;&gt;Wabour el maya stree jjfdkmsfngbfv&lt;/span&gt;&lt;br&gt;&lt;span style=&quot;font-weight: normal ; font-size: 8px&quot;&gt;011252165623&amp;nbsp;&lt;/span&gt;&lt;/li&gt;&lt;li style=&quot;line-height: 0.4&quot;&gt;&lt;span style=&quot;font-size: 12px&quot;&gt;Campus name:&amp;nbsp;&lt;/span&gt;&lt;font style=&quot;font-weight: normal ; font-size: 8px&quot;&gt;Bab sharqi&lt;/font&gt;&lt;br&gt;&lt;font style=&quot;font-size: 12px&quot;&gt;Adress:&lt;/font&gt;&lt;font style=&quot;font-weight: normal ; font-size: 12px&quot;&gt;&amp;nbsp;&lt;/font&gt;&lt;span style=&quot;font-weight: normal ; font-size: 8px&quot;&gt;Wabour el maya stree jjfdkmsfngbfv&lt;/span&gt;&lt;br&gt;&lt;span style=&quot;font-weight: normal ; font-size: 8px&quot;&gt;011252165623&amp;nbsp;&lt;/span&gt;&lt;/li&gt;&lt;/ul&gt;&lt;/h1&gt;" style="text;html=1;strokeColor=none;fillColor=none;spacing=5;spacingTop=-20;whiteSpace=wrap;overflow=hidden;rounded=0;align=left;" parent="10" vertex="1">
                    <mxGeometry y="60" width="210" height="120" as="geometry"/>
                </mxCell>
                <mxCell id="12" value="Home&amp;nbsp; &amp;nbsp; About Us&amp;nbsp; &amp;nbsp; Contact Us&amp;nbsp; &amp;nbsp;Registration&amp;nbsp; &amp;nbsp;Login" style="rounded=1;whiteSpace=wrap;html=1;" parent="10" vertex="1">
                    <mxGeometry y="25" width="320" height="20" as="geometry"/>
                </mxCell>
                <mxCell id="15" value="" style="rounded=0;whiteSpace=wrap;html=1;fontSize=8;" parent="10" vertex="1">
                    <mxGeometry x="190" y="70" width="110" height="100" as="geometry"/>
                </mxCell>
                <mxCell id="16" value="Popup form" style="swimlane;fontStyle=0;startSize=23;" parent="187" vertex="1">
                    <mxGeometry x="85" y="444" width="310" height="226" as="geometry"/>
                </mxCell>
                <mxCell id="21" value="&lt;font style=&quot;font-size: 15px&quot;&gt;Login&lt;/font&gt;" style="rounded=1;whiteSpace=wrap;html=1;fontSize=8;" parent="16" vertex="1">
                    <mxGeometry x="101" y="114" width="120" height="30" as="geometry"/>
                </mxCell>
                <mxCell id="24" value="&lt;font style=&quot;font-size: 15px&quot;&gt;Registration&amp;nbsp;&lt;br&gt;&lt;/font&gt;" style="rounded=1;whiteSpace=wrap;html=1;fontSize=8;" parent="16" vertex="1">
                    <mxGeometry x="101" y="70" width="120" height="30" as="geometry"/>
                </mxCell>
                <mxCell id="29" value="&lt;font style=&quot;font-size: 15px&quot;&gt;Blood Test&lt;br&gt;&lt;/font&gt;" style="rounded=1;whiteSpace=wrap;html=1;fontSize=8;" parent="16" vertex="1">
                    <mxGeometry x="101" y="160" width="120" height="30" as="geometry"/>
                </mxCell>
                <mxCell id="38" value="Text" style="text;html=1;align=center;verticalAlign=middle;resizable=0;points=[];autosize=1;strokeColor=none;fillColor=none;fontSize=15;" parent="187" vertex="1">
                    <mxGeometry x="510" y="240" width="40" height="20" as="geometry"/>
                </mxCell>
                <mxCell id="186" value="" style="group" parent="187" vertex="1" connectable="0">
                    <mxGeometry x="1180" y="620" width="500" height="490" as="geometry"/>
                </mxCell>
                <mxCell id="34" value="Avaiable Dates " style="swimlane;fontStyle=0;startSize=23;" parent="186" vertex="1">
                    <mxGeometry y="140" width="500" height="350" as="geometry"/>
                </mxCell>
                <mxCell id="180" value="&lt;font style=&quot;font-size: 27px&quot;&gt;Avaiable Dates :&lt;/font&gt;" style="text;html=1;align=center;verticalAlign=middle;resizable=0;points=[];autosize=1;strokeColor=none;fillColor=none;" parent="34" vertex="1">
                    <mxGeometry x="30" y="90" width="210" height="20" as="geometry"/>
                </mxCell>
                <mxCell id="181" value="&lt;font style=&quot;font-size: 27px&quot;&gt;Avaiable Campus:&lt;/font&gt;" style="text;html=1;align=center;verticalAlign=middle;resizable=0;points=[];autosize=1;strokeColor=none;fillColor=none;fontSize=27;" parent="34" vertex="1">
                    <mxGeometry x="45" y="180" width="230" height="40" as="geometry"/>
                </mxCell>
                <mxCell id="185" value="" style="shape=singleArrow;direction=south;whiteSpace=wrap;html=1;fontSize=27;" parent="34" vertex="1">
                    <mxGeometry x="200" y="-140" width="60" height="140" as="geometry"/>
                </mxCell>
                <mxCell id="184" value="" style="shape=singleArrow;direction=south;whiteSpace=wrap;html=1;fontSize=27;" parent="186" vertex="1">
                    <mxGeometry x="200" width="60" height="140" as="geometry"/>
                </mxCell>
                <mxCell id="189" value="" style="shape=singleArrow;whiteSpace=wrap;html=1;fontSize=27;" parent="187" vertex="1">
                    <mxGeometry x="715" y="120" width="65" height="60" as="geometry"/>
                </mxCell>
                <mxCell id="304" value="Avaiable hospitals " style="swimlane;fontStyle=0;startSize=23;" vertex="1" parent="187">
                    <mxGeometry x="1240" y="1340" width="500" height="350" as="geometry"/>
                </mxCell>
                <mxCell id="305" value="&lt;font style=&quot;font-size: 27px&quot;&gt;Avaiable Dates :&lt;/font&gt;" style="text;html=1;align=center;verticalAlign=middle;resizable=0;points=[];autosize=1;strokeColor=none;fillColor=none;" vertex="1" parent="304">
                    <mxGeometry x="30" y="90" width="210" height="20" as="geometry"/>
                </mxCell>
                <mxCell id="306" value="&lt;font style=&quot;font-size: 27px&quot;&gt;Avaiable Hospital:&lt;/font&gt;" style="text;html=1;align=center;verticalAlign=middle;resizable=0;points=[];autosize=1;strokeColor=none;fillColor=none;fontSize=27;" vertex="1" parent="304">
                    <mxGeometry x="45" y="180" width="230" height="40" as="geometry"/>
                </mxCell>
                <mxCell id="308" value="Select for&amp;nbsp;Reservation" style="rounded=1;fillColor=#0057D8;strokeColor=none;html=1;fontColor=#ffffff;align=center;verticalAlign=middle;fontStyle=0;fontSize=12;sketch=0;" vertex="1" parent="304">
                    <mxGeometry x="168.5" y="270" width="163" height="33" as="geometry"/>
                </mxCell>
            </root>
        </mxGraphModel>
    </diagram>
</mxfile>